# xmcd
#
# Track frame offsets:
#	150
#	16671
#	30307
#	45145
#	57817
#	72009
#	85712
#	95745
#	108067
#	121572
#	135422
#	149038
#	161883
#	175594
#	187461
#	200267
#	214294
#	228602
#	241885
#	256339
#	269440
#
# Disc length: 3778
#
# Revision: 1
# Processed by: cddbd v1.5.1PL0 Copyright (c) Steve Scherf et al.
# Submitted via: CDex 1.51
# Normalized: r0:TDELIM( - ),TSWAP
#
DISCID=1a0ec015
DTITLE=Variuos artists - Le petit dictionnaire du jazz classique CD1
DYEAR=2004
DGENRE=Jazz
TTITLE0=Henry "Red" Allen - Roamin' (Smith)
TTITLE1=Albert Ammons - Boogie Woogie Stomp
TTITLE2=Louis Armstrong - Shine
TTITLE3=Count Basie - Swingin' The Blues
TTITLE4=Sidney Bechet - Indian Summer
TTITLE5=Bix Beiderbecke - Singin' the Blues
TTITLE6=Chu Berry - Sittin' In
TTITLE7=Barney Bigard - Stompy Jones
TTITLE8=Claude Bolling - Things ain't what they used to be
TTITLE9=Dave Brubeck - You Go To My Head
TTITLE10=Don Byas - Wrap your troubles in dreams
TTITLE11=Cab Calloway - The Jumpin' Jive
TTITLE12=Benny Carter - Crazy Rythm
TTITLE13=Ray Charles - The Sun's Gonna Shine Again
TTITLE14=Charlie Christian - Solo Flight
TTITLE15=Nat King Kole - If You Can't Smile And Say Yes
TTITLE16=Miles Davis - Godchild
TTITLE17=Johnny Dodds - Bull Fiddle Blues
TTITLE18=Tommy Dorsey (& Franck Sinatra) - I'll Never Smile Again
TTITLE19=Roy Eldridge - The Grasser
TTITLE20=Duke Ellington - Mood Indigo
EXTD=YEAR: 2004
EXTT0=
EXTT1=
EXTT2=
EXTT3=
EXTT4=
EXTT5=
EXTT6=
EXTT7=
EXTT8=
EXTT9=
EXTT10=
EXTT11=
EXTT12=
EXTT13=
EXTT14=
EXTT15=
EXTT16=
EXTT17=
EXTT18=
EXTT19=
EXTT20=
PLAYORDER=
